# xmcd
#
# Track frame offsets:
# 150
# 15063
# 34788
# 51630
# 70241
# 88884
# 106112
# 126763
# 146209
# 165417
# 183368
#
# Disc length: 2790 seconds
#
#
# Revision: 5
# Processed by: cddbd v1.5.2PL0 Copyright (c) Steve Scherf et al.
# Submitted via: FreeRIP 2.944 
#
DISCID=900ae40b
DTITLE=Camera Obscura - My Maudlin Career
DYEAR=2009
DGENRE=Indie
TTITLE0=French Navy
TTITLE1=The Sweetest Thing
TTITLE2=You Told A Lie
TTITLE3=Away With Murder
TTITLE4=Swans
TTITLE5=James
TTITLE6=Careless Love
TTITLE7=My Maudlin Career
TTITLE8=Forests And Sands
TTITLE9=Other Towns And Cities
TTITLE10=Honey In The Sun
EXTD=4AD, 304 Hudson Street 7th floor NY, NY 10013\nLC 05807 - CAD 2907CD - 6 52637 29072 1 
EXTT0=
EXTT1=
EXTT2=
EXTT3=
EXTT4=
EXTT5=
EXTT6=
EXTT7=
EXTT8=
EXTT9=
EXTT10=
PLAYORDER=
